<svg width="800" height="600" xmlns="http://www.w3.org/2000/svg">
  <rect width="100%" height="100%" fill="#f0f0f0"/>
  <g>
    <rect x="50" y="50" width="700" height="500" rx="15" ry="15" fill="#ffffff" stroke="#cccccc" stroke-width="2"/>
    <g>
      <rect x="100" y="100" width="200" height="300" fill="#e0e0e0" stroke="#b0b0b0" stroke-width="2"/>
      <rect x="150" y="150" width="100" height="200" fill="#d0d0d0" stroke="#a0a0a0" stroke-width="2"/>
      <circle cx="200" cy="200" r="10" fill="#ff0000"/>
      <circle cx="200" cy="250" r="10" fill="#00ff00"/>
      <circle cx="200" cy="300" r="10" fill="#0000ff"/>
    </g>
    <g>
      <rect x="400" y="100" width="300" height="400" fill="#f0f0f0" stroke="#cccccc" stroke-width="2"/>
      <rect x="450" y="150" width="200" height="50" fill="#d0d0d0" stroke="#a0a0a0" stroke-width="2"/>
      <rect x="450" y="250" width="200" height="50" fill="#d0d0d0" stroke="#a0a0a0" stroke-width="2"/>
      <rect x="450" y="350" width="200" height="50" fill="#d0d0d0" stroke="#a0a0a0" stroke-width="2"/>
      <circle cx="550" cy="200" r="10" fill="#ff0000"/>
      <circle cx="550" cy="300" r="10" fill="#00ff00"/>
      <circle cx="550" cy="400" r="10" fill="#0000ff"/>
    </g>
    <g>
      <rect x="300" y="450" width="200" height="100" fill="#e0e0e0" stroke="#b0b0b0" stroke-width="2"/>
      <rect x="350" y="470" width="100" height="60" fill="#d0d0d0" stroke="#a0a0a0" stroke-width="2"/>
      <circle cx="400" cy="500" r="10" fill="#ff0000"/>
    </g>
  </g>
</svg>
